<?xml version="1.0" encoding="iso-8859-1"?>
<!-- Generator: Adobe Illustrator 19.0.0, SVG Export Plug-In . SVG Version: 6.00 Build 0)  -->
<svg version="1.1" id="Layer_1" xmlns="http://www.w3.org/2000/svg" xmlns:xlink="http://www.w3.org/1999/xlink" x="0px" y="0px"
	 viewBox="0 0 511.939 511.939" style="enable-background:new 0 0 511.939 511.939;" xml:space="preserve">
<g>
	<g>
		<g>
			<path d="M239.345,222.162c-7.147,10.347-11.307,21.227-14.293,29.44c-2.027,5.76-1.067,12.16,2.453,17.067
				c3.84,5.333,10.027,8.533,16.64,8.533h23.68c6.613,0,12.8-3.2,16.64-8.533c3.627-4.907,4.48-11.307,2.453-17.067
				c-2.88-8.32-7.147-19.093-14.293-29.44c-3.733-5.227-9.6-8.427-16-8.96c-0.427,0-0.96,0-1.387,0
				C248.838,213.735,243.078,216.935,239.345,222.162z M255.985,235.602c4.053,6.4,7.36,13.12,9.813,20.267h-19.627
				C248.625,248.722,251.931,242.002,255.985,235.602z"/>
			<path d="M245.318,180.028c0-9.493-2.88-16.96-8.64-22.293c-9.173-8.64-22.827-8.96-33.707-8.213
				c-27.307,1.707-43.84,9.493-49.28,23.147c-6.293,15.893-5.867,31.147,1.28,40.96c5.76,7.893,14.827,10.347,25.493,10.347
				c7.253-0.213,14.4-0.853,21.547-2.133C227.931,217.682,245.318,200.935,245.318,180.028z M172.251,200.935
				c-1.813-2.453-2.88-9.92,1.28-20.48c1.493-3.84,11.84-8.533,30.827-9.813c1.92-0.107,3.627-0.213,5.12-0.213
				c8.32,0,11.413,1.6,12.587,2.667s1.92,3.413,1.92,6.72c0,12.267-13.653,18.773-25.28,20.587
				C177.905,203.922,173.211,202.215,172.251,200.935z"/>
			<path d="M310.171,149.415c-10.347-0.64-25.173-0.533-34.88,8.533c-5.76,5.333-8.64,12.8-8.64,21.973
				c0,20.907,17.387,37.653,43.307,41.707c7.147,1.28,14.293,1.92,21.547,2.133c10.667,0,19.733-2.453,25.493-10.347
				c7.147-9.813,7.573-25.067,1.28-40.96C352.838,158.908,336.625,151.122,310.171,149.415z M339.718,201.468
				c-0.96,1.28-5.653,2.987-26.453-0.32c-11.627-1.813-25.28-8.32-25.28-20.587c0-4.693,1.387-5.973,1.92-6.4
				c1.28-1.173,4.693-2.987,13.653-2.987c1.6,0,3.307,0,5.227,0.213c19.52,1.28,28.16,6.08,29.653,9.813
				C342.598,191.548,341.531,199.015,339.718,201.468z"/>
			<path d="M319.985,266.535h-11.307c-5.867,0-10.667,4.8-10.667,10.667c0,6.4-5.653,18.987-7.787,21.547
				c-2.347,2.56-15.36,7.467-34.773,7.467c-21.653,0-32.747-4.053-34.453-5.547c-2.24-3.093-7.573-17.6-8-20.693
				c0.213-8.96-6.827-16.32-15.787-16.533c-2.987-0.107-5.867,0.64-8.427,2.133c-4.8,2.773-7.68,7.893-7.573,13.44
				c0,5.867,4.8,10.667,10.667,10.667c0.107,0,1.173,0,1.707-0.107c2.667,9.28,7.787,21.227,11.627,25.28
				c10.347,10.987,35.947,12.587,50.24,12.587c22.507,0,42.24-5.547,50.347-14.187c3.947-4.267,9.387-15.147,12.053-25.6h2.133
				c5.867,0,10.667-4.8,10.667-10.667C330.651,271.335,325.851,266.535,319.985,266.535z"/>
			<path d="M177.265,385.255l-38.293,15.68c-13.653,5.227-21.653,19.2-19.413,34.133c0.32,2.453,0.213,4.907-0.32,7.36
				c-1.173,5.653-4.693,10.56-9.707,13.44c-5.653,2.987-12.373,3.52-18.453,1.387c-5.44-1.92-9.92-5.973-12.267-11.307
				c-1.92-4.587-1.92-9.813,0-14.4c2.24-5.12,6.507-9.173,11.733-11.093c5.44-2.24,8-8.533,5.76-13.973
				c-2.133-5.227-8-7.893-13.44-5.973c-11.093,4.267-23.68-0.747-28.16-11.093c-2.133-5.013-1.92-10.667,0.533-15.467
				c2.88-5.547,8-9.493,14.08-10.88c5.653-1.387,12.16-0.107,17.6,3.413c2.24,1.387,4.267,3.2,5.867,5.227
				c9.067,12.053,24.32,16.533,38.08,11.307l21.973-8.747c5.547-2.133,8.213-8.213,6.187-13.76
				c-2.133-5.547-8.213-8.213-13.76-6.187c-0.107,0-0.213,0.107-0.32,0.107l-21.76,8.747c-5.333,2.027-10.453-0.747-13.227-4.373
				c-3.093-4.053-6.933-7.467-11.2-10.24c-10.133-6.72-22.507-9.067-34.347-6.293c-12.053,2.88-22.293,10.987-27.947,22.08
				c-5.227,10.453-5.653,22.613-1.067,33.387c4.693,10.88,13.76,19.2,25.067,23.04c-0.32,0.747-0.747,1.493-1.067,2.24
				c-4.267,9.92-4.267,21.227,0,31.147c4.693,10.773,13.653,19.2,24.853,23.04c4.693,1.707,9.707,2.56,14.72,2.56
				c7.253,0,14.4-1.813,20.907-5.227c15.147-8.64,23.573-25.6,21.12-42.773c-0.64-3.84,0.64-8.96,6.187-11.093l38.507-15.787
				c5.44-2.24,8-8.427,5.76-13.867C188.891,385.575,182.705,383.015,177.265,385.255z"/>
			<path d="M508.891,263.335c-4.587-10.88-13.547-19.2-24.64-23.147c0.32-0.747,0.64-1.387,0.96-2.133
				c4.267-10.027,4.267-21.227,0.107-31.253c-4.587-10.88-13.547-19.307-24.64-23.147c-11.52-4.053-24.213-2.987-34.88,2.773
				c-10.453,5.867-17.92,16-20.267,27.733c-1.067,4.907-1.28,9.92-0.64,14.933c0.533,3.84-0.64,9.067-5.76,11.093
				c-5.547,2.133-8.213,8.32-6.08,13.867c2.133,5.547,8.32,8.213,13.867,6.08c13.44-5.227,21.333-19.2,19.093-34.027
				c-0.32-2.453-0.213-5.013,0.427-7.467c1.067-5.653,4.587-10.56,9.493-13.44c5.44-2.987,11.84-3.52,17.6-1.387
				c5.44,1.92,9.813,5.973,12.16,11.307c2.027,4.693,2.027,10.027,0,14.72c-2.133,5.013-6.293,8.96-11.413,10.88
				c-5.44,2.133-8.213,8.32-6.08,13.867c2.133,5.44,8.32,8.213,13.867,6.08c10.667-4.16,22.933,0.747,27.2,10.987
				c2.133,5.12,1.92,10.88-0.533,15.787c-2.773,5.333-7.68,9.28-13.547,10.667c-5.867,1.28-12.053,0-16.96-3.413
				c-2.133-1.387-4.16-3.2-5.653-5.227c-9.067-12.16-24.107-16.747-37.653-11.413l-45.44,18.133c-3.947,1.6-5.653,9.707-5.653,9.707
				v-45.333c0,0,31.04-17.067,30.933-39.573v-79.253c-0.107-70.72-81.813-109.867-138.347-109.867h-1.387
				c-57.493,0.533-137.707,42.56-137.707,109.76v79.253c0,22.08,11.52,36.053,32,39.573v45.333c-0.107-4.267-2.773-8.107-6.72-9.707
				l-45.44-18.133c-13.44-5.227-28.587-0.64-37.547,11.52c-1.6,2.027-3.52,3.84-5.653,5.227c-5.227,3.52-11.52,4.8-16.96,3.413
				c-5.867-1.387-10.88-5.333-13.547-10.667c-2.453-4.907-2.667-10.667-0.533-15.787c4.267-10.24,16.533-15.253,27.2-10.987
				c5.44,2.133,11.627-0.533,13.867-6.08c2.24-5.547-0.533-11.627-6.08-13.867c-5.12-1.92-9.28-5.867-11.413-10.88
				c-2.027-4.693-2.027-10.027,0-14.72c2.24-5.333,6.613-9.387,12.053-11.307c5.867-2.027,12.267-1.6,17.707,1.493
				c5.013,2.88,8.427,7.787,9.493,13.44c0.533,2.453,0.64,4.907,0.32,7.36c-2.24,14.827,5.653,28.8,19.093,34.027
				c5.44,2.24,11.627-0.427,13.867-5.867c2.24-5.44-0.427-11.627-5.867-13.867c-0.107,0-0.213-0.107-0.213-0.107
				c-5.12-2.027-6.293-7.253-5.76-11.093c0.64-5.013,0.427-10.027-0.64-14.933c-2.347-11.733-9.813-21.867-20.267-27.733
				c-10.773-5.867-23.36-6.827-34.88-2.773c-11.2,3.84-20.16,12.267-24.747,23.04c-4.16,10.027-4.16,21.227,0.107,31.253
				c0.32,0.747,0.64,1.387,0.96,2.133c-11.093,3.84-20.053,12.267-24.64,23.147c-4.48,10.773-4.053,23.04,1.173,33.6
				c5.547,10.88,15.573,18.88,27.413,21.76c3.2,0.747,6.507,1.173,9.707,1.173c8.64,0,17.067-2.667,24.213-7.467
				c4.267-2.773,8-6.187,10.987-10.24c2.667-3.627,7.573-6.293,12.587-4.373l45.44,18.133c5.44,2.24,11.627-0.427,13.867-5.973
				c0.533-1.387,0.747-2.773,0.747-4.16v8c0,31.467,37.867,49.067,68.16,63.253c3.627,1.707,7.253,3.307,10.56,5.013
				c7.04,3.413,15.04,1.493,21.547-0.107c1.707-0.427,3.52-0.853,5.227-1.067c2.027,0.213,3.947,0.533,5.867,1.067
				c4.373,1.173,8.747,1.813,13.227,1.92c3.093,0.107,6.293-0.533,9.067-1.92l8.107-3.84c31.787-15.147,71.36-33.92,71.36-64.32v-8
				c0,0,4.587,10.773,10.453,10.88c1.387,0,2.88-0.213,4.16-0.747l45.333-18.133c5.12-2.027,10.027,0.747,12.693,4.267
				c3.093,4.053,6.827,7.467,10.987,10.24c7.147,4.8,15.573,7.467,24.32,7.573c3.307,0,6.507-0.427,9.707-1.173
				c11.84-2.88,21.867-10.88,27.413-21.76C512.945,286.375,513.371,274.108,508.891,263.335z M351.985,239.975
				c-5.867-0.107-10.667,4.693-10.667,10.56v63.147c0,16.96-35.627,33.92-59.2,45.12l-7.573,3.733
				c-1.6,0.32-6.507-0.853-9.173-1.387c-3.413-0.96-7.04-1.493-10.56-1.6c-3.413,0.213-6.933,0.747-10.24,1.707
				c-2.453,0.533-6.613,1.6-7.36,1.6c-3.413-1.6-7.04-3.307-10.773-5.12c-23.467-11.093-55.787-26.133-55.787-43.947v-63.253
				c0-5.867-4.8-10.667-10.773-10.667c-17.707,0-21.227-7.253-21.227-19.093v-79.253c0-52.373,69.973-87.787,116.267-88.213
				l1.28-0.213c47.787,0,117.12,31.573,117.12,88.64v79.147C373.318,232.935,369.798,239.975,351.985,239.975z"/>
			<path d="M447.771,342.375c-17.067-3.627-34.773,2.773-45.547,16.533c-2.773,3.627-8,6.4-13.12,4.48l-21.973-8.747
				c-5.44-2.24-11.733,0.32-13.973,5.76c-2.24,5.44,0.32,11.733,5.76,13.973c0.107,0,0.213,0.107,0.32,0.107l22.08,8.853
				c13.547,5.227,28.8,0.64,37.867-11.413c1.6-2.027,3.627-3.84,5.867-5.227c5.44-3.52,12.053-4.8,17.6-3.413
				c6.08,1.387,11.2,5.333,14.08,10.88c2.453,4.8,2.667,10.56,0.533,15.467c-4.373,10.347-17.067,15.36-28.16,11.093
				c-5.44-2.24-11.733,0.32-13.973,5.76s0.32,11.733,5.76,13.973c0.213,0.107,0.32,0.107,0.533,0.213
				c5.227,1.92,9.493,5.973,11.733,11.093c2.027,4.587,2.027,9.813,0,14.4c-2.347,5.333-6.827,9.387-12.267,11.307
				c-6.08,2.133-12.8,1.6-18.453-1.387c-5.013-2.88-8.64-7.787-9.707-13.44c-0.533-2.453-0.64-4.907-0.32-7.36
				c2.24-14.827-5.76-28.907-19.2-34.027l-38.507-15.787c-5.44-2.24-11.733,0.32-13.867,5.867c-2.24,5.44,0.32,11.733,5.76,13.867
				l38.72,15.893c5.333,2.027,6.507,7.253,5.973,10.987c-0.747,5.013-0.533,10.133,0.64,15.04
				c2.453,11.84,9.92,21.973,20.587,27.733c10.987,5.867,23.893,6.827,35.627,2.667c11.093-3.84,20.16-12.267,24.747-23.04
				c4.267-9.92,4.267-21.227,0-31.147c-0.32-0.747-0.64-1.6-1.067-2.24c11.2-3.84,20.373-12.16,25.067-23.04
				c4.587-10.773,4.16-22.933-1.067-33.387C470.065,353.362,459.931,345.255,447.771,342.375z"/>
		</g>
	</g>
</g>
<g>
</g>
<g>
</g>
<g>
</g>
<g>
</g>
<g>
</g>
<g>
</g>
<g>
</g>
<g>
</g>
<g>
</g>
<g>
</g>
<g>
</g>
<g>
</g>
<g>
</g>
<g>
</g>
<g>
</g>
</svg>
